<svg width="512" height="512" viewBox="0 0 512 512" style="color:currentColor" xmlns="http://www.w3.org/2000/svg" class="h-full w-full"><rect width="512" height="512" x="0" y="0" rx="30" fill="transparent" stroke="transparent" stroke-width="0" stroke-opacity="100%" paint-order="stroke"></rect><svg width="256px" height="256px" viewBox="0 0 24 24" fill="currentColor" x="128" y="128" role="img" style="display:inline-block;vertical-align:middle" xmlns="http://www.w3.org/2000/svg"><g fill="currentColor"><g id="evaEditFill0"><g id="evaEditFill1"><path id="evaEditFill2" fill="currentColor" d="M19.4 7.34L16.66 4.6A2 2 0 0 0 14 4.53l-9 9a2 2 0 0 0-.57 1.21L4 18.91a1 1 0 0 0 .29.8A1 1 0 0 0 5 20h.09l4.17-.38a2 2 0 0 0 1.21-.57l9-9a1.92 1.92 0 0 0-.07-2.71ZM16 10.68L13.32 8l1.95-2L18 8.73Z"/></g></g></g></svg></svg>