<svg width="512" height="512" viewBox="0 0 512 512" style="color:currentColor" xmlns="http://www.w3.org/2000/svg" class="h-full w-full"><rect width="512" height="512" x="0" y="0" rx="30" fill="transparent" stroke="transparent" stroke-width="0" stroke-opacity="100%" paint-order="stroke"></rect><svg width="256px" height="256px" viewBox="0 0 16 16" fill="currentColor" x="128" y="128" role="img" style="display:inline-block;vertical-align:middle" xmlns="http://www.w3.org/2000/svg"><g fill="currentColor"><g fill="currentColor"><path d="M4 .5a.5.5 0 0 0-1 0V1H2a2 2 0 0 0-2 2v1h16V3a2 2 0 0 0-2-2h-1V.5a.5.5 0 0 0-1 0V1H4V.5zm5.402 9.746c.625 0 1.184-.484 1.184-1.18c0-.832-.527-1.23-1.16-1.23c-.586 0-1.168.387-1.168 1.21c0 .817.543 1.2 1.144 1.2z"/><path d="M16 14V5H0v9a2 2 0 0 0 2 2h12a2 2 0 0 0 2-2zm-6.664-1.21c-1.11 0-1.656-.767-1.703-1.407h.683c.043.37.387.82 1.051.82c.844 0 1.301-.848 1.305-2.164h-.027c-.153.414-.637.79-1.383.79c-.852 0-1.676-.61-1.676-1.77c0-1.137.871-1.809 1.797-1.809c1.172 0 1.953.734 1.953 2.668c0 1.805-.742 2.871-2 2.871zm-2.89-5.435v5.332H5.77V8.079h-.012c-.29.156-.883.52-1.258.777V8.16a12.6 12.6 0 0 1 1.313-.805h.632z"/></g></g></svg></svg>