<svg width="512" height="512" viewBox="0 0 512 512" style="color:#000000" xmlns="http://www.w3.org/2000/svg" class="h-full w-full"><rect width="512" height="512" x="0" y="0" rx="30" fill="transparent" stroke="transparent" stroke-width="0" stroke-opacity="100%" paint-order="stroke"></rect><svg width="256px" height="256px" viewBox="0 0 1024 1024" fill="#000000" x="128" y="128" role="img" style="display:inline-block;vertical-align:middle" xmlns="http://www.w3.org/2000/svg"><g fill="black"><path fill="currentColor" fill-rule="evenodd" d="M799.855 166.312c.023.007.043.018.084.059l57.69 57.69c.041.041.052.06.059.084a.118.118 0 0 1 0 .069c-.007.023-.018.042-.059.083L569.926 512l287.703 287.703c.041.04.052.06.059.083a.118.118 0 0 1 0 .07c-.007.022-.018.042-.059.083l-57.69 57.69c-.041.041-.06.052-.084.059a.118.118 0 0 1-.069 0c-.023-.007-.042-.018-.083-.059L512 569.926L224.297 857.629c-.04.041-.06.052-.083.059a.118.118 0 0 1-.07 0c-.022-.007-.042-.018-.083-.059l-57.69-57.69c-.041-.041-.052-.06-.059-.084a.118.118 0 0 1 0-.069c.007-.023.018-.042.059-.083L454.073 512L166.371 224.297c-.041-.04-.052-.06-.059-.083a.118.118 0 0 1 0-.07c.007-.022.018-.042.059-.083l57.69-57.69c.041-.041.06-.052.084-.059a.118.118 0 0 1 .069 0c.023.007.042.018.083.059L512 454.073l287.703-287.702c.04-.041.06-.052.083-.059a.118.118 0 0 1 .07 0Z"/></g></svg></svg>