<svg width="512" height="512" viewBox="0 0 512 512" style="color:#ffffff" xmlns="http://www.w3.org/2000/svg" class="h-full w-full"><rect width="512" height="512" x="0" y="0" rx="30" fill="transparent" stroke="transparent" stroke-width="0" stroke-opacity="100%" paint-order="stroke"></rect><svg width="256px" height="256px" viewBox="0 0 1024 1024" fill="#ffffff" x="128" y="128" role="img" style="display:inline-block;vertical-align:middle" xmlns="http://www.w3.org/2000/svg"><g fill="#ffffff"><path fill="currentColor" d="M832 464H332V240c0-30.9 25.1-56 56-56h248c30.9 0 56 25.1 56 56v68c0 4.4 3.6 8 8 8h56c4.4 0 8-3.6 8-8v-68c0-70.7-57.3-128-128-128H388c-70.7 0-128 57.3-128 128v224h-68c-17.7 0-32 14.3-32 32v384c0 17.7 14.3 32 32 32h640c17.7 0 32-14.3 32-32V496c0-17.7-14.3-32-32-32zM540 701v53c0 4.4-3.6 8-8 8h-40c-4.4 0-8-3.6-8-8v-53a48.01 48.01 0 1 1 56 0z"/></g></svg></svg>